<svg xmlns="http://www.w3.org/2000/svg"  x="0px" y="0px"
	 viewBox="-40 -40 600 260" enable-background="new -40 -40 600 260" xml:space="preserve">
<path fill="#E6403D" stroke="#E6403D" stroke-width="0.75" d="M59.34,43.94c0,0-52.77,2.3-56.96,7.8
	c-5.68,7.44,10.82,8.82,21.17,7.84C23.55,59.59-27.78,50.15,59.34,43.94z"/>
<path fill="#E6403D" stroke="#E6403D" stroke-width="0.75" d="M61.7,6.63c0,0-32.2,19.66-2.47,30.12
	c19.76,6.95,11.73-5.21,11.73-5.21S41.32,28.64,61.7,6.63z"/>
<path fill="#E6403D" stroke="#E6403D" stroke-width="0.75" d="M27.72,61.45c5.6,0.15,45.9,12.51,12.96,76.19
	C40.69,137.64,92.81,72.49,27.72,61.45z"/>
<path fill="#E6403D" stroke="#E6403D" stroke-width="0.75" d="M83.47,119.28c-0.06-0.01-16.99,4.52-30.28,33.02
	c7.4-17.61,24.63-35,24.63-35"/>
<path fill="#E6403D" stroke="#E6403D" stroke-width="0.75" d="M140.55,11.32c0,0-75.27,63.65-19.55,144.89
	C121,156.21,78.89,78.86,140.55,11.32z"/>
<path fill="#E6403D" stroke="#E6403D" stroke-width="0.75" d="M75.73,43.83c3.74-1.46,44.47-13.95,52.79-40.7
	C128.52,3.13,109.91,30.49,75.73,43.83z"/>
<path fill="#E6403D" stroke="#E6403D" stroke-width="0.75" d="M67.64,7.93c0,0,14.58,5.9,10.75,22.86
	C78.39,30.79,89.13,7.93,67.64,7.93z"/>
<path fill="#E6403D" stroke="#E6403D" stroke-width="0.75" d="M67.64,7.93c0,0,14.58,5.9,10.75,22.86
	C78.39,30.79,89.13,7.93,67.64,7.93z"/>
<g>
	<path fill="#E6403D" d="M177.86,57.58v-0.53c-0.72,0.82-1.42,1.49-2.12,2c-0.7,0.51-1.45,0.91-2.27,1.17
		c-0.81,0.27-1.7,0.4-2.67,0.4c-1.28,0-2.46-0.27-3.54-0.81c-1.09-0.54-2.03-1.31-2.82-2.31c-0.79-1-1.4-2.18-1.81-3.54
		s-0.62-2.82-0.62-4.39c0-3.33,0.81-5.93,2.44-7.79c1.63-1.86,3.77-2.79,6.43-2.79c1.54,0,2.83,0.26,3.89,0.79s2.08,1.34,3.09,2.43
		v-7.87c0-1.09,0.22-1.92,0.65-2.48c0.44-0.56,1.06-0.84,1.87-0.84c0.81,0,1.43,0.26,1.87,0.77c0.44,0.51,0.65,1.27,0.65,2.28v23.52
		c0,1.02-0.23,1.78-0.7,2.29s-1.07,0.76-1.82,0.76c-0.73,0-1.33-0.26-1.81-0.79C178.1,59.31,177.86,58.56,177.86,57.58z
		 M167.38,49.75c0,1.45,0.22,2.68,0.67,3.69s1.06,1.78,1.85,2.29s1.63,0.77,2.56,0.77c0.94,0,1.79-0.24,2.57-0.73
		c0.77-0.49,1.39-1.24,1.86-2.25c0.46-1.01,0.69-2.27,0.69-3.78c0-1.42-0.23-2.64-0.69-3.66c-0.46-1.02-1.09-1.8-1.88-2.34
		c-0.79-0.54-1.65-0.81-2.59-0.81c-0.98,0-1.85,0.28-2.62,0.83c-0.77,0.55-1.36,1.35-1.79,2.38
		C167.59,47.18,167.38,48.38,167.38,49.75z"/>
	<path fill="#E6403D" d="M190.95,36.47c-0.74,0-1.38-0.23-1.9-0.68s-0.79-1.1-0.79-1.93c0-0.75,0.27-1.38,0.81-1.87
		c0.54-0.49,1.17-0.73,1.88-0.73c0.69,0,1.3,0.22,1.84,0.66c0.53,0.44,0.8,1.09,0.8,1.93c0,0.82-0.26,1.46-0.78,1.92
		C192.28,36.23,191.67,36.47,190.95,36.47z M193.59,41.97v15.41c0,1.07-0.25,1.88-0.76,2.42s-1.15,0.82-1.93,0.82
		s-1.42-0.28-1.9-0.84s-0.73-1.36-0.73-2.4V42.13c0-1.05,0.24-1.85,0.73-2.38s1.12-0.8,1.9-0.8s1.43,0.27,1.93,0.8
		S193.59,41.02,193.59,41.97z"/>
	<path fill="#E6403D" d="M212.57,57.62c-1.29,1-2.54,1.75-3.74,2.26c-1.2,0.5-2.56,0.75-4.05,0.75c-1.37,0-2.57-0.27-3.6-0.81
		s-1.83-1.27-2.39-2.2c-0.56-0.92-0.84-1.93-0.84-3.01c0-1.46,0.46-2.7,1.39-3.73c0.92-1.03,2.19-1.72,3.81-2.07
		c0.34-0.08,1.18-0.25,2.52-0.53c1.34-0.27,2.49-0.52,3.45-0.75s2-0.5,3.12-0.83c-0.07-1.41-0.35-2.44-0.85-3.1
		c-0.5-0.66-1.54-0.99-3.12-0.99c-1.35,0-2.37,0.19-3.06,0.57s-1.27,0.94-1.76,1.7s-0.83,1.25-1.04,1.49
		c-0.2,0.24-0.63,0.36-1.3,0.36c-0.6,0-1.12-0.19-1.55-0.58c-0.44-0.38-0.65-0.88-0.65-1.47c0-0.94,0.33-1.85,1-2.73
		s1.7-1.61,3.11-2.19s3.16-0.86,5.25-0.86c2.34,0,4.19,0.28,5.53,0.83c1.34,0.55,2.29,1.43,2.84,2.63c0.55,1.2,0.83,2.79,0.83,4.77
		c0,1.25,0,2.31-0.01,3.18c-0.01,0.87-0.02,1.84-0.03,2.91c0,1,0.17,2.05,0.5,3.13s0.5,1.79,0.5,2.1c0,0.55-0.26,1.04-0.77,1.49
		c-0.51,0.45-1.1,0.67-1.75,0.67c-0.55,0-1.09-0.26-1.62-0.77C213.74,59.34,213.17,58.59,212.57,57.62z M212.22,49.9
		c-0.78,0.29-1.92,0.59-3.41,0.91c-1.49,0.32-2.52,0.55-3.1,0.7c-0.57,0.15-1.12,0.44-1.64,0.88c-0.52,0.44-0.78,1.04-0.78,1.83
		c0,0.81,0.31,1.49,0.92,2.06c0.61,0.57,1.41,0.85,2.4,0.85c1.05,0,2.03-0.23,2.92-0.69c0.89-0.46,1.55-1.06,1.96-1.79
		c0.48-0.81,0.72-2.14,0.72-3.98V49.9z"/>
	<path fill="#E6403D" d="M227.26,34.06v8.14c1-1.04,2.02-1.84,3.07-2.39c1.04-0.55,2.33-0.83,3.87-0.83c1.77,0,3.32,0.42,4.66,1.26
		c1.33,0.84,2.37,2.06,3.11,3.65c0.74,1.59,1.1,3.49,1.1,5.67c0,1.61-0.21,3.1-0.62,4.44s-1.01,2.52-1.79,3.51s-1.73,1.75-2.84,2.29
		s-2.34,0.81-3.68,0.81c-0.82,0-1.59-0.1-2.31-0.29s-1.34-0.45-1.85-0.77s-0.94-0.65-1.3-0.99c-0.36-0.34-0.83-0.85-1.42-1.52v0.53
		c0,1-0.24,1.76-0.72,2.28c-0.48,0.51-1.09,0.77-1.84,0.77c-0.76,0-1.36-0.26-1.81-0.77s-0.67-1.27-0.67-2.28V34.3
		c0-1.08,0.22-1.9,0.65-2.45c0.44-0.55,1.04-0.83,1.83-0.83c0.82,0,1.45,0.26,1.89,0.79C227.04,32.33,227.26,33.09,227.26,34.06z
		 M227.51,49.9c0,2.12,0.48,3.75,1.46,4.89c0.97,1.14,2.24,1.71,3.82,1.71c1.34,0,2.5-0.58,3.47-1.75c0.97-1.17,1.46-2.83,1.46-5.01
		c0-1.41-0.2-2.62-0.61-3.63c-0.4-1.02-0.98-1.8-1.72-2.35s-1.61-0.83-2.6-0.83c-1.02,0-1.92,0.28-2.71,0.83
		c-0.79,0.55-1.42,1.35-1.88,2.4C227.74,47.21,227.51,48.46,227.51,49.9z"/>
	<path fill="#E6403D" d="M262.22,51.09h-10.43c0.01,1.21,0.26,2.28,0.73,3.2c0.48,0.92,1.11,1.62,1.89,2.09
		c0.79,0.47,1.66,0.7,2.61,0.7c0.64,0,1.22-0.08,1.75-0.22s1.04-0.38,1.53-0.7c0.49-0.32,0.95-0.66,1.37-1.03
		c0.42-0.36,0.96-0.86,1.62-1.48c0.27-0.23,0.66-0.35,1.17-0.35c0.55,0,0.99,0.15,1.33,0.45c0.34,0.3,0.51,0.72,0.51,1.27
		c0,0.48-0.19,1.04-0.57,1.69c-0.38,0.64-0.95,1.26-1.71,1.86s-1.72,1.08-2.87,1.47s-2.48,0.59-3.97,0.59
		c-3.42,0-6.09-0.98-7.99-2.93c-1.9-1.95-2.85-4.6-2.85-7.95c0-1.58,0.23-3.04,0.7-4.38s1.15-2.5,2.05-3.47s2-1.7,3.32-2.22
		c1.31-0.51,2.77-0.77,4.38-0.77c2.08,0,3.87,0.44,5.36,1.32c1.49,0.88,2.61,2.01,3.35,3.41s1.11,2.81,1.11,4.26
		c0,1.34-0.38,2.21-1.15,2.61C264.69,50.9,263.61,51.09,262.22,51.09z M251.79,48.07h9.67c-0.13-1.82-0.62-3.19-1.47-4.09
		c-0.85-0.91-1.98-1.36-3.37-1.36c-1.33,0-2.42,0.46-3.27,1.38C252.49,44.91,251.97,46.27,251.79,48.07z"/>
	<path fill="#E6403D" d="M271.4,39.42h0.59v-3.2c0-0.86,0.02-1.53,0.07-2.02c0.04-0.49,0.17-0.91,0.38-1.26
		c0.21-0.36,0.51-0.66,0.9-0.89s0.83-0.34,1.31-0.34c0.68,0,1.29,0.25,1.84,0.76c0.36,0.34,0.6,0.75,0.69,1.24s0.15,1.18,0.15,2.08
		v3.63h1.95c0.75,0,1.33,0.18,1.73,0.54c0.4,0.36,0.6,0.82,0.6,1.38c0,0.72-0.28,1.22-0.85,1.5s-1.38,0.43-2.43,0.43h-1v9.8
		c0,0.83,0.03,1.47,0.09,1.92s0.21,0.81,0.47,1.09s0.67,0.42,1.24,0.42c0.31,0,0.74-0.06,1.27-0.17c0.53-0.11,0.95-0.17,1.25-0.17
		c0.43,0,0.82,0.17,1.16,0.52c0.34,0.34,0.52,0.77,0.52,1.28c0,0.86-0.47,1.52-1.41,1.97s-2.29,0.68-4.04,0.68
		c-1.67,0-2.93-0.28-3.79-0.84s-1.42-1.33-1.69-2.32c-0.27-0.99-0.4-2.31-0.4-3.96V43.26h-0.7c-0.77,0-1.35-0.18-1.76-0.55
		c-0.4-0.36-0.61-0.83-0.61-1.39s0.21-1.02,0.63-1.38C269.98,39.59,270.59,39.42,271.4,39.42z"/>
	<path fill="#E6403D" d="M300.15,51.09h-10.43c0.01,1.21,0.26,2.28,0.73,3.2c0.47,0.92,1.11,1.62,1.89,2.09
		c0.79,0.47,1.66,0.7,2.61,0.7c0.64,0,1.22-0.08,1.75-0.22s1.04-0.38,1.53-0.7c0.49-0.32,0.95-0.66,1.37-1.03
		c0.42-0.36,0.96-0.86,1.62-1.48c0.27-0.23,0.66-0.35,1.17-0.35c0.55,0,0.99,0.15,1.33,0.45c0.34,0.3,0.51,0.72,0.51,1.27
		c0,0.48-0.19,1.04-0.57,1.69c-0.38,0.64-0.95,1.26-1.71,1.86s-1.72,1.08-2.87,1.47s-2.48,0.59-3.97,0.59
		c-3.42,0-6.09-0.98-7.99-2.93c-1.9-1.95-2.85-4.6-2.85-7.95c0-1.58,0.23-3.04,0.7-4.38s1.15-2.5,2.05-3.47s2-1.7,3.32-2.22
		c1.31-0.51,2.77-0.77,4.38-0.77c2.08,0,3.87,0.44,5.36,1.32c1.49,0.88,2.61,2.01,3.35,3.41s1.11,2.81,1.11,4.26
		c0,1.34-0.38,2.21-1.15,2.61C302.62,50.9,301.54,51.09,300.15,51.09z M289.72,48.07h9.67c-0.13-1.82-0.62-3.19-1.47-4.09
		c-0.85-0.91-1.98-1.36-3.37-1.36c-1.33,0-2.42,0.46-3.27,1.38C290.42,44.91,289.9,46.27,289.72,48.07z"/>
	<path fill="#E6403D" d="M326.2,53.65c0,1.47-0.36,2.73-1.07,3.78s-1.77,1.84-3.17,2.38s-3.1,0.81-5.11,0.81
		c-1.91,0-3.55-0.29-4.92-0.88s-2.38-1.32-3.03-2.2c-0.65-0.88-0.98-1.76-0.98-2.65c0-0.59,0.21-1.09,0.63-1.5
		c0.42-0.42,0.94-0.63,1.58-0.63c0.56,0,0.99,0.14,1.29,0.41c0.3,0.27,0.59,0.66,0.86,1.15c0.55,0.95,1.2,1.66,1.96,2.13
		s1.8,0.7,3.12,0.7c1.07,0,1.94-0.24,2.63-0.71s1.03-1.02,1.03-1.63c0-0.94-0.35-1.62-1.06-2.05s-1.88-0.84-3.51-1.23
		c-1.84-0.46-3.33-0.93-4.48-1.44s-2.07-1.16-2.76-1.98c-0.69-0.82-1.04-1.83-1.04-3.03c0-1.07,0.32-2.08,0.96-3.03
		c0.64-0.95,1.58-1.71,2.82-2.28c1.24-0.57,2.74-0.85,4.5-0.85c1.38,0,2.62,0.14,3.72,0.43s2.02,0.67,2.75,1.15s1.3,1.02,1.68,1.6
		s0.58,1.16,0.58,1.72c0,0.61-0.21,1.11-0.62,1.5s-0.99,0.59-1.75,0.59c-0.55,0-1.01-0.16-1.4-0.47s-0.82-0.78-1.32-1.41
		c-0.4-0.52-0.88-0.94-1.43-1.25s-1.29-0.47-2.23-0.47c-0.96,0-1.76,0.21-2.4,0.62c-0.64,0.41-0.96,0.92-0.96,1.53
		c0,0.56,0.23,1.02,0.7,1.38s1.1,0.65,1.89,0.89c0.79,0.23,1.89,0.52,3.28,0.86c1.65,0.4,3,0.89,4.05,1.45s1.84,1.22,2.38,1.98
		S326.2,52.68,326.2,53.65z"/>
	<path fill="#7E7C89" d="M329.19,53.95l3.48-0.55c0.2,1.39,0.74,2.46,1.63,3.2s2.14,1.11,3.74,1.11c1.61,0,2.81-0.33,3.59-0.99
		s1.17-1.43,1.17-2.31c0-0.79-0.34-1.42-1.04-1.88c-0.48-0.31-1.68-0.71-3.59-1.19c-2.58-0.65-4.37-1.21-5.36-1.69
		s-1.75-1.13-2.27-1.97s-0.77-1.77-0.77-2.78c0-0.92,0.21-1.78,0.63-2.57s1-1.44,1.73-1.96c0.55-0.4,1.29-0.75,2.24-1.03
		s1.96-0.42,3.04-0.42c1.63,0,3.06,0.23,4.29,0.7s2.14,1.1,2.72,1.9s0.99,1.87,1.21,3.21l-3.44,0.47c-0.16-1.07-0.61-1.9-1.36-2.5
		s-1.81-0.9-3.17-0.9c-1.61,0-2.77,0.27-3.46,0.8s-1.04,1.16-1.04,1.88c0,0.46,0.14,0.87,0.43,1.23c0.29,0.38,0.74,0.69,1.35,0.94
		c0.35,0.13,1.39,0.43,3.11,0.9c2.49,0.66,4.22,1.21,5.21,1.63s1.75,1.04,2.31,1.85s0.84,1.81,0.84,3.01c0,1.17-0.34,2.28-1.03,3.31
		s-1.67,1.84-2.96,2.4s-2.75,0.85-4.38,0.85c-2.7,0-4.75-0.56-6.16-1.68S329.58,56.15,329.19,53.95z"/>
	<path fill="#7E7C89" d="M364.13,52.54l3.46,0.45c-0.38,2.38-1.34,4.25-2.9,5.6s-3.47,2.02-5.73,2.02c-2.84,0-5.12-0.93-6.85-2.78
		s-2.59-4.51-2.59-7.98c0-2.24,0.37-4.2,1.11-5.88s1.87-2.94,3.39-3.78s3.17-1.26,4.95-1.26c2.25,0,4.09,0.57,5.53,1.71
		s2.35,2.76,2.75,4.85l-3.42,0.53c-0.33-1.39-0.9-2.44-1.73-3.14s-1.83-1.05-3-1.05c-1.77,0-3.21,0.63-4.32,1.9
		s-1.66,3.28-1.66,6.03c0,2.79,0.53,4.81,1.6,6.07s2.46,1.89,4.18,1.89c1.38,0,2.53-0.42,3.46-1.27S363.89,54.3,364.13,52.54z"/>
	<path fill="#7E7C89" d="M370.6,60.14V31.5h3.52v10.27c1.64-1.9,3.71-2.85,6.21-2.85c1.54,0,2.87,0.3,4,0.91s1.94,1.44,2.43,2.51
		s0.73,2.62,0.73,4.65v13.14h-3.52V46.99c0-1.76-0.38-3.04-1.14-3.84s-1.84-1.2-3.23-1.2c-1.04,0-2.02,0.27-2.94,0.81
		s-1.57,1.27-1.96,2.2s-0.59,2.2-0.59,3.83v11.35H370.6z"/>
	<path fill="#7E7C89" d="M396.67,60.14l-6.35-20.74h3.63l3.3,11.97l1.23,4.45c0.05-0.22,0.41-1.65,1.07-4.28l3.3-12.15h3.61
		l3.11,12.03l1.04,3.96l1.19-4l3.55-11.99h3.42l-6.48,20.74h-3.65l-3.3-12.42l-0.8-3.54l-4.2,15.96H396.67z"/>
	<path fill="#7E7C89" d="M435.93,53.46l3.63,0.45c-0.57,2.12-1.63,3.77-3.18,4.94s-3.53,1.76-5.94,1.76c-3.03,0-5.44-0.93-7.22-2.8
		s-2.67-4.49-2.67-7.86c0-3.49,0.9-6.2,2.7-8.13s4.13-2.89,6.99-2.89c2.77,0,5.04,0.94,6.8,2.83s2.64,4.54,2.64,7.97
		c0,0.21-0.01,0.52-0.02,0.94h-15.47c0.13,2.28,0.77,4.02,1.93,5.23s2.6,1.82,4.34,1.82c1.29,0,2.39-0.34,3.3-1.02
		S435.4,54.94,435.93,53.46z M424.39,47.77h11.58c-0.16-1.75-0.6-3.05-1.33-3.93c-1.12-1.35-2.57-2.03-4.36-2.03
		c-1.61,0-2.97,0.54-4.07,1.62S424.5,45.96,424.39,47.77z"/>
	<path fill="#7E7C89" d="M444,35.55V31.5h3.52v4.04H444z M444,60.14V39.4h3.52v20.74H444z"/>
	<path fill="#7E7C89" d="M451.01,60.14v-2.85l13.2-15.16c-1.5,0.08-2.82,0.12-3.96,0.12h-8.46V39.4h16.95v2.32l-11.23,13.16
		l-2.17,2.4c1.58-0.12,3.05-0.18,4.43-0.18h9.59v3.03H451.01z"/>
</g>
<g>
	<path fill="#E6403D" d="M150.86,99.62V99.1c-0.72,0.82-1.42,1.49-2.12,2c-0.7,0.51-1.45,0.91-2.27,1.17
		c-0.81,0.27-1.7,0.4-2.67,0.4c-1.28,0-2.46-0.27-3.54-0.81c-1.09-0.54-2.03-1.31-2.82-2.31c-0.79-1-1.4-2.18-1.81-3.54
		s-0.62-2.82-0.62-4.39c0-3.33,0.81-5.93,2.44-7.79c1.63-1.86,3.77-2.79,6.43-2.79c1.54,0,2.83,0.26,3.89,0.79s2.08,1.34,3.09,2.43
		v-7.87c0-1.09,0.22-1.92,0.65-2.48c0.44-0.56,1.06-0.84,1.87-0.84c0.81,0,1.43,0.26,1.87,0.77c0.44,0.51,0.65,1.27,0.65,2.28v23.52
		c0,1.02-0.23,1.78-0.7,2.29s-1.07,0.76-1.82,0.76c-0.73,0-1.33-0.26-1.81-0.79C151.1,101.35,150.86,100.6,150.86,99.62z
		 M140.38,91.79c0,1.45,0.22,2.68,0.67,3.69s1.06,1.78,1.85,2.29s1.63,0.77,2.56,0.77c0.94,0,1.79-0.24,2.57-0.73
		c0.77-0.49,1.39-1.24,1.86-2.25c0.46-1.01,0.69-2.27,0.69-3.78c0-1.42-0.23-2.64-0.69-3.66c-0.46-1.02-1.09-1.8-1.88-2.34
		c-0.79-0.54-1.65-0.81-2.59-0.81c-0.98,0-1.85,0.28-2.62,0.83c-0.77,0.55-1.36,1.35-1.79,2.38
		C140.59,89.22,140.38,90.42,140.38,91.79z"/>
	<path fill="#E6403D" d="M163.95,78.51c-0.74,0-1.38-0.23-1.9-0.68s-0.79-1.1-0.79-1.93c0-0.75,0.27-1.38,0.81-1.87
		c0.54-0.49,1.17-0.73,1.88-0.73c0.69,0,1.3,0.22,1.84,0.66c0.53,0.44,0.8,1.09,0.8,1.93c0,0.82-0.26,1.46-0.78,1.92
		C165.28,78.28,164.67,78.51,163.95,78.51z M166.59,84.02v15.41c0,1.07-0.25,1.88-0.76,2.42s-1.15,0.82-1.93,0.82
		s-1.42-0.28-1.9-0.84s-0.73-1.36-0.73-2.4V84.17c0-1.05,0.24-1.85,0.73-2.38s1.12-0.8,1.9-0.8s1.43,0.27,1.93,0.8
		S166.59,83.07,166.59,84.02z"/>
	<path fill="#E6403D" d="M185.57,99.66c-1.29,1-2.54,1.75-3.74,2.26c-1.2,0.5-2.56,0.75-4.05,0.75c-1.37,0-2.57-0.27-3.6-0.81
		s-1.83-1.27-2.39-2.2c-0.56-0.92-0.84-1.93-0.84-3.01c0-1.46,0.46-2.7,1.39-3.73c0.92-1.03,2.19-1.72,3.81-2.07
		c0.34-0.08,1.18-0.25,2.52-0.53c1.34-0.27,2.49-0.52,3.45-0.75s2-0.5,3.12-0.83c-0.07-1.41-0.35-2.44-0.85-3.1
		c-0.5-0.66-1.54-0.99-3.12-0.99c-1.35,0-2.37,0.19-3.06,0.57s-1.27,0.94-1.76,1.7s-0.83,1.25-1.04,1.49
		c-0.2,0.24-0.63,0.36-1.3,0.36c-0.6,0-1.12-0.19-1.55-0.58c-0.44-0.38-0.65-0.88-0.65-1.47c0-0.94,0.33-1.85,1-2.73
		s1.7-1.61,3.11-2.19s3.16-0.86,5.25-0.86c2.34,0,4.19,0.28,5.53,0.83c1.34,0.55,2.29,1.43,2.84,2.63c0.55,1.2,0.83,2.79,0.83,4.77
		c0,1.25,0,2.31-0.01,3.18c-0.01,0.87-0.02,1.84-0.03,2.91c0,1,0.17,2.05,0.5,3.13s0.5,1.79,0.5,2.1c0,0.55-0.26,1.04-0.77,1.49
		c-0.51,0.45-1.1,0.67-1.75,0.67c-0.55,0-1.09-0.26-1.62-0.77C186.74,101.38,186.17,100.64,185.57,99.66z M185.22,91.95
		c-0.78,0.29-1.92,0.59-3.41,0.91c-1.49,0.32-2.52,0.55-3.1,0.7c-0.57,0.15-1.12,0.44-1.64,0.88c-0.52,0.44-0.78,1.04-0.78,1.83
		c0,0.81,0.31,1.49,0.92,2.06c0.61,0.57,1.41,0.85,2.4,0.85c1.05,0,2.03-0.23,2.92-0.69c0.89-0.46,1.55-1.06,1.96-1.79
		c0.48-0.81,0.72-2.14,0.72-3.98V91.95z"/>
	<path fill="#E6403D" d="M200.26,76.11v8.14c1-1.04,2.02-1.84,3.07-2.39c1.04-0.55,2.33-0.83,3.87-0.83c1.77,0,3.32,0.42,4.66,1.26
		c1.33,0.84,2.37,2.06,3.11,3.65c0.74,1.59,1.1,3.49,1.1,5.67c0,1.61-0.21,3.1-0.62,4.44s-1.01,2.52-1.79,3.51s-1.73,1.75-2.84,2.29
		s-2.34,0.81-3.68,0.81c-0.82,0-1.59-0.1-2.31-0.29s-1.34-0.45-1.85-0.77s-0.94-0.65-1.3-0.99c-0.36-0.34-0.83-0.85-1.42-1.52v0.53
		c0,1-0.24,1.76-0.72,2.28c-0.48,0.51-1.09,0.77-1.84,0.77c-0.76,0-1.36-0.26-1.81-0.77s-0.67-1.27-0.67-2.28V76.34
		c0-1.08,0.22-1.9,0.65-2.45c0.44-0.55,1.04-0.83,1.83-0.83c0.82,0,1.45,0.26,1.89,0.79C200.04,74.38,200.26,75.13,200.26,76.11z
		 M200.51,91.95c0,2.12,0.48,3.75,1.46,4.89c0.97,1.14,2.24,1.71,3.82,1.71c1.34,0,2.5-0.58,3.47-1.75
		c0.97-1.17,1.46-2.83,1.46-5.01c0-1.41-0.2-2.62-0.61-3.63c-0.4-1.02-0.98-1.8-1.72-2.35s-1.61-0.83-2.6-0.83
		c-1.02,0-1.92,0.28-2.71,0.83c-0.79,0.55-1.42,1.35-1.88,2.4C200.74,89.25,200.51,90.5,200.51,91.95z"/>
	<path fill="#E6403D" d="M235.22,93.14h-10.43c0.01,1.21,0.26,2.28,0.73,3.2c0.48,0.92,1.11,1.62,1.89,2.09
		c0.79,0.47,1.66,0.7,2.61,0.7c0.64,0,1.22-0.08,1.75-0.22s1.04-0.38,1.53-0.7c0.49-0.32,0.95-0.66,1.37-1.03
		c0.42-0.36,0.96-0.86,1.62-1.48c0.27-0.23,0.66-0.35,1.17-0.35c0.55,0,0.99,0.15,1.33,0.45c0.34,0.3,0.51,0.72,0.51,1.27
		c0,0.48-0.19,1.04-0.57,1.69c-0.38,0.64-0.95,1.26-1.71,1.86s-1.72,1.08-2.87,1.47s-2.48,0.59-3.97,0.59
		c-3.42,0-6.09-0.98-7.99-2.93c-1.9-1.95-2.85-4.6-2.85-7.95c0-1.58,0.23-3.04,0.7-4.38s1.15-2.5,2.05-3.47s2-1.7,3.32-2.22
		c1.31-0.51,2.77-0.77,4.38-0.77c2.08,0,3.87,0.44,5.36,1.32c1.49,0.88,2.61,2.01,3.35,3.41s1.11,2.81,1.11,4.26
		c0,1.34-0.38,2.21-1.15,2.61C237.69,92.94,236.61,93.14,235.22,93.14z M230.3,75.54l0.88,1.64c0.35,0.56,0.53,0.94,0.53,1.15
		c0,0.33-0.28,0.49-0.84,0.49c-0.86,0-1.66-0.19-2.4-0.57c-0.36-0.18-1.26-0.96-2.7-2.32c-1.43-1.37-2.15-2.14-2.15-2.3
		c0-0.2,0.33-0.29,1-0.29h2.64c0.77,0,1.35,0.14,1.74,0.41S229.81,74.62,230.3,75.54z M224.79,90.11h9.67
		c-0.13-1.82-0.62-3.19-1.47-4.09c-0.85-0.91-1.98-1.36-3.37-1.36c-1.33,0-2.42,0.46-3.27,1.38
		C225.49,86.96,224.97,88.31,224.79,90.11z"/>
	<path fill="#E6403D" d="M244.4,81.46h0.59v-3.2c0-0.86,0.02-1.53,0.07-2.02c0.05-0.49,0.17-0.91,0.38-1.26
		c0.21-0.36,0.51-0.66,0.9-0.89s0.83-0.34,1.31-0.34c0.68,0,1.29,0.25,1.84,0.76c0.36,0.34,0.6,0.75,0.69,1.24s0.15,1.18,0.15,2.08
		v3.63h1.95c0.75,0,1.33,0.18,1.73,0.54c0.4,0.36,0.6,0.82,0.6,1.38c0,0.72-0.28,1.22-0.85,1.5s-1.38,0.43-2.43,0.43h-1v9.8
		c0,0.83,0.03,1.47,0.09,1.92s0.21,0.81,0.47,1.09s0.67,0.42,1.24,0.42c0.31,0,0.74-0.06,1.27-0.17c0.53-0.11,0.95-0.17,1.25-0.17
		c0.43,0,0.82,0.17,1.16,0.52c0.34,0.34,0.52,0.77,0.52,1.28c0,0.86-0.47,1.52-1.41,1.97s-2.29,0.68-4.04,0.68
		c-1.67,0-2.93-0.28-3.79-0.84s-1.42-1.33-1.69-2.32c-0.27-0.99-0.4-2.31-0.4-3.96V85.31h-0.7c-0.77,0-1.35-0.18-1.76-0.55
		c-0.4-0.36-0.61-0.83-0.61-1.39s0.21-1.02,0.63-1.38C242.98,81.64,243.59,81.46,244.4,81.46z"/>
	<path fill="#E6403D" d="M273.15,93.14h-10.43c0.01,1.21,0.26,2.28,0.73,3.2c0.47,0.92,1.11,1.62,1.89,2.09
		c0.79,0.47,1.66,0.7,2.61,0.7c0.64,0,1.22-0.08,1.75-0.22s1.04-0.38,1.53-0.7c0.49-0.32,0.95-0.66,1.37-1.03
		c0.42-0.36,0.96-0.86,1.62-1.48c0.27-0.23,0.66-0.35,1.17-0.35c0.55,0,0.99,0.15,1.33,0.45c0.34,0.3,0.51,0.72,0.51,1.27
		c0,0.48-0.19,1.04-0.57,1.69c-0.38,0.64-0.95,1.26-1.71,1.86s-1.72,1.08-2.87,1.47s-2.48,0.59-3.97,0.59
		c-3.42,0-6.09-0.98-7.99-2.93c-1.9-1.95-2.85-4.6-2.85-7.95c0-1.58,0.23-3.04,0.7-4.38s1.15-2.5,2.05-3.47s2-1.7,3.32-2.22
		c1.31-0.51,2.77-0.77,4.38-0.77c2.08,0,3.87,0.44,5.36,1.32c1.49,0.88,2.61,2.01,3.35,3.41s1.11,2.81,1.11,4.26
		c0,1.34-0.38,2.21-1.15,2.61C275.62,92.94,274.54,93.14,273.15,93.14z M262.72,90.11h9.67c-0.13-1.82-0.62-3.19-1.47-4.09
		c-0.85-0.91-1.98-1.36-3.37-1.36c-1.33,0-2.42,0.46-3.27,1.38C263.42,86.96,262.9,88.31,262.72,90.11z"/>
	<path fill="#7E7C89" d="M280.51,95.99l3.48-0.55c0.2,1.39,0.74,2.46,1.63,3.2c0.89,0.74,2.14,1.11,3.74,1.11
		c1.61,0,2.81-0.33,3.59-0.99s1.17-1.43,1.17-2.31c0-0.79-0.34-1.42-1.04-1.88c-0.48-0.31-1.68-0.71-3.59-1.19
		c-2.58-0.65-4.37-1.21-5.36-1.69s-1.75-1.13-2.27-1.97c-0.51-0.84-0.77-1.77-0.77-2.78c0-0.92,0.21-1.78,0.63-2.57
		c0.42-0.79,1-1.44,1.73-1.96c0.55-0.4,1.29-0.75,2.24-1.03c0.94-0.28,1.96-0.42,3.04-0.42c1.63,0,3.06,0.23,4.29,0.7
		s2.14,1.1,2.72,1.9s0.99,1.87,1.21,3.21l-3.44,0.47c-0.16-1.07-0.61-1.9-1.36-2.5s-1.81-0.9-3.17-0.9c-1.62,0-2.77,0.27-3.46,0.8
		c-0.69,0.53-1.04,1.16-1.04,1.88c0,0.46,0.14,0.87,0.43,1.23c0.29,0.38,0.74,0.69,1.35,0.94c0.35,0.13,1.39,0.43,3.11,0.9
		c2.49,0.66,4.22,1.21,5.21,1.63s1.75,1.04,2.31,1.85s0.84,1.81,0.84,3.01c0,1.17-0.34,2.28-1.03,3.31s-1.67,1.84-2.96,2.4
		s-2.75,0.85-4.38,0.85c-2.7,0-4.75-0.56-6.16-1.68C281.8,99.85,280.9,98.19,280.51,95.99z"/>
	<path fill="#7E7C89" d="M315.51,102.18v-3.05c-1.61,2.34-3.81,3.52-6.58,3.52c-1.22,0-2.37-0.23-3.43-0.7s-1.85-1.06-2.36-1.77
		s-0.88-1.58-1.08-2.61c-0.14-0.69-0.21-1.78-0.21-3.28V81.44h3.52v11.5c0,1.84,0.07,3.07,0.21,3.71c0.22,0.92,0.69,1.65,1.41,2.18
		s1.6,0.79,2.66,0.79s2.04-0.27,2.97-0.81s1.58-1.28,1.96-2.21s0.58-2.28,0.58-4.05V81.44h3.52v20.74H315.51z"/>
	<path fill="#7E7C89" d="M324.18,77.59v-4.04h3.52v4.04H324.18z M324.18,102.18V81.44h3.52v20.74H324.18z"/>
	<path fill="#7E7C89" d="M331.64,95.99l3.48-0.55c0.2,1.39,0.74,2.46,1.63,3.2s2.14,1.11,3.74,1.11c1.61,0,2.81-0.33,3.59-0.99
		s1.17-1.43,1.17-2.31c0-0.79-0.34-1.42-1.04-1.88c-0.48-0.31-1.68-0.71-3.59-1.19c-2.58-0.65-4.37-1.21-5.36-1.69
		s-1.75-1.13-2.27-1.97s-0.77-1.77-0.77-2.78c0-0.92,0.21-1.78,0.63-2.57s1-1.44,1.73-1.96c0.55-0.4,1.29-0.75,2.24-1.03
		s1.96-0.42,3.04-0.42c1.63,0,3.06,0.23,4.29,0.7s2.14,1.1,2.72,1.9s0.99,1.87,1.21,3.21l-3.44,0.47c-0.16-1.07-0.61-1.9-1.36-2.5
		s-1.81-0.9-3.17-0.9c-1.61,0-2.77,0.27-3.46,0.8s-1.04,1.16-1.04,1.88c0,0.46,0.14,0.87,0.43,1.23c0.29,0.38,0.74,0.69,1.35,0.94
		c0.35,0.13,1.39,0.43,3.11,0.9c2.49,0.66,4.22,1.21,5.21,1.63s1.75,1.04,2.31,1.85s0.84,1.81,0.84,3.01c0,1.17-0.34,2.28-1.03,3.31
		s-1.67,1.84-2.96,2.4s-2.75,0.85-4.38,0.85c-2.7,0-4.75-0.56-6.16-1.68S332.04,98.19,331.64,95.99z"/>
	<path fill="#7E7C89" d="M351.64,95.99l3.48-0.55c0.2,1.39,0.74,2.46,1.63,3.2s2.14,1.11,3.74,1.11c1.61,0,2.81-0.33,3.59-0.99
		s1.17-1.43,1.17-2.31c0-0.79-0.34-1.42-1.04-1.88c-0.48-0.31-1.68-0.71-3.59-1.19c-2.58-0.65-4.37-1.21-5.36-1.69
		s-1.75-1.13-2.27-1.97s-0.77-1.77-0.77-2.78c0-0.92,0.21-1.78,0.63-2.57s1-1.44,1.73-1.96c0.55-0.4,1.29-0.75,2.24-1.03
		s1.96-0.42,3.04-0.42c1.63,0,3.06,0.23,4.29,0.7s2.14,1.1,2.72,1.9s0.99,1.87,1.21,3.21l-3.44,0.47c-0.16-1.07-0.61-1.9-1.36-2.5
		s-1.81-0.9-3.17-0.9c-1.61,0-2.77,0.27-3.46,0.8s-1.04,1.16-1.04,1.88c0,0.46,0.14,0.87,0.43,1.23c0.29,0.38,0.74,0.69,1.35,0.94
		c0.35,0.13,1.39,0.43,3.11,0.9c2.49,0.66,4.22,1.21,5.21,1.63s1.75,1.04,2.31,1.85s0.84,1.81,0.84,3.01c0,1.17-0.34,2.28-1.03,3.31
		s-1.67,1.84-2.96,2.4s-2.75,0.85-4.38,0.85c-2.7,0-4.75-0.56-6.16-1.68S352.04,98.19,351.64,95.99z"/>
	<path fill="#7E7C89" d="M387.25,95.5l3.63,0.45c-0.57,2.12-1.63,3.77-3.18,4.94s-3.53,1.76-5.94,1.76c-3.03,0-5.44-0.93-7.22-2.8
		s-2.67-4.49-2.67-7.86c0-3.49,0.9-6.2,2.7-8.13s4.13-2.89,6.99-2.89c2.77,0,5.04,0.94,6.8,2.83s2.64,4.54,2.64,7.97
		c0,0.21-0.01,0.52-0.02,0.94h-15.47c0.13,2.28,0.77,4.02,1.93,5.23s2.6,1.82,4.34,1.82c1.29,0,2.39-0.34,3.3-1.02
		S386.72,96.99,387.25,95.5z M375.71,89.82h11.58c-0.16-1.75-0.6-3.05-1.33-3.93c-1.12-1.35-2.57-2.03-4.36-2.03
		c-1.61,0-2.97,0.54-4.07,1.62S375.82,88.01,375.71,89.82z"/>
</g>
<g>
	<path fill="#E6403D" d="M177.86,141.67v-0.53c-0.72,0.82-1.42,1.49-2.12,2c-0.7,0.51-1.45,0.91-2.27,1.17
		c-0.81,0.27-1.7,0.4-2.67,0.4c-1.28,0-2.46-0.27-3.54-0.81c-1.09-0.54-2.03-1.31-2.82-2.31c-0.79-1-1.4-2.18-1.81-3.54
		s-0.62-2.82-0.62-4.39c0-3.33,0.81-5.93,2.44-7.79c1.63-1.86,3.77-2.79,6.43-2.79c1.54,0,2.83,0.26,3.89,0.79s2.08,1.34,3.09,2.43
		v-7.87c0-1.09,0.22-1.92,0.65-2.48c0.44-0.56,1.06-0.84,1.87-0.84c0.81,0,1.43,0.26,1.87,0.77c0.44,0.51,0.65,1.27,0.65,2.28v23.52
		c0,1.02-0.23,1.78-0.7,2.29s-1.07,0.76-1.82,0.76c-0.73,0-1.33-0.26-1.81-0.79C178.1,143.39,177.86,142.64,177.86,141.67z
		 M167.38,133.83c0,1.45,0.22,2.68,0.67,3.69s1.06,1.78,1.85,2.29s1.63,0.77,2.56,0.77c0.94,0,1.79-0.24,2.57-0.73
		c0.77-0.49,1.39-1.24,1.86-2.25c0.46-1.01,0.69-2.27,0.69-3.78c0-1.42-0.23-2.64-0.69-3.66c-0.46-1.02-1.09-1.8-1.88-2.34
		c-0.79-0.54-1.65-0.81-2.59-0.81c-0.98,0-1.85,0.28-2.62,0.83c-0.77,0.55-1.36,1.35-1.79,2.38
		C167.59,131.27,167.38,132.47,167.38,133.83z"/>
	<path fill="#E6403D" d="M190.95,120.55c-0.74,0-1.38-0.23-1.9-0.68s-0.79-1.1-0.79-1.93c0-0.75,0.27-1.38,0.81-1.87
		c0.54-0.49,1.17-0.73,1.88-0.73c0.69,0,1.3,0.22,1.84,0.66c0.53,0.44,0.8,1.09,0.8,1.93c0,0.82-0.26,1.46-0.78,1.92
		C192.28,120.32,191.67,120.55,190.95,120.55z M193.59,126.06v15.41c0,1.07-0.25,1.88-0.76,2.42s-1.15,0.82-1.93,0.82
		s-1.42-0.28-1.9-0.84s-0.73-1.36-0.73-2.4v-15.25c0-1.05,0.24-1.85,0.73-2.38s1.12-0.8,1.9-0.8s1.43,0.27,1.93,0.8
		S193.59,125.11,193.59,126.06z"/>
	<path fill="#E6403D" d="M212.57,141.71c-1.29,1-2.54,1.75-3.74,2.26c-1.2,0.5-2.56,0.75-4.05,0.75c-1.37,0-2.57-0.27-3.6-0.81
		s-1.83-1.27-2.39-2.2c-0.56-0.92-0.84-1.93-0.84-3.01c0-1.46,0.46-2.7,1.39-3.73c0.92-1.03,2.19-1.72,3.81-2.07
		c0.34-0.08,1.18-0.25,2.52-0.53c1.34-0.27,2.49-0.52,3.45-0.75s2-0.5,3.12-0.83c-0.07-1.41-0.35-2.44-0.85-3.1
		c-0.5-0.66-1.54-0.99-3.12-0.99c-1.35,0-2.37,0.19-3.06,0.57s-1.27,0.94-1.76,1.7s-0.83,1.25-1.04,1.49
		c-0.2,0.24-0.63,0.36-1.3,0.36c-0.6,0-1.12-0.19-1.55-0.58c-0.44-0.38-0.65-0.88-0.65-1.47c0-0.94,0.33-1.85,1-2.73
		s1.7-1.61,3.11-2.19s3.16-0.86,5.25-0.86c2.34,0,4.19,0.28,5.53,0.83c1.34,0.55,2.29,1.43,2.84,2.63c0.55,1.2,0.83,2.79,0.83,4.77
		c0,1.25,0,2.31-0.01,3.18c-0.01,0.87-0.02,1.84-0.03,2.91c0,1,0.17,2.05,0.5,3.13s0.5,1.79,0.5,2.1c0,0.55-0.26,1.04-0.77,1.49
		c-0.51,0.45-1.1,0.67-1.75,0.67c-0.55,0-1.09-0.26-1.62-0.77C213.74,143.43,213.17,142.68,212.57,141.71z M212.22,133.99
		c-0.78,0.29-1.92,0.59-3.41,0.91c-1.49,0.32-2.52,0.55-3.1,0.7c-0.57,0.15-1.12,0.44-1.64,0.88c-0.52,0.44-0.78,1.04-0.78,1.83
		c0,0.81,0.31,1.49,0.92,2.06c0.61,0.57,1.41,0.85,2.4,0.85c1.05,0,2.03-0.23,2.92-0.69c0.89-0.46,1.55-1.06,1.96-1.79
		c0.48-0.81,0.72-2.14,0.72-3.98V133.99z"/>
	<path fill="#E6403D" d="M227.26,118.15v8.14c1-1.04,2.02-1.84,3.07-2.39c1.04-0.55,2.33-0.83,3.87-0.83c1.77,0,3.32,0.42,4.66,1.26
		c1.33,0.84,2.37,2.06,3.11,3.65c0.74,1.59,1.1,3.49,1.1,5.67c0,1.61-0.21,3.1-0.62,4.44s-1.01,2.52-1.79,3.51s-1.73,1.75-2.84,2.29
		s-2.34,0.81-3.68,0.81c-0.82,0-1.59-0.1-2.31-0.29s-1.34-0.45-1.85-0.77s-0.94-0.65-1.3-0.99c-0.36-0.34-0.83-0.85-1.42-1.52v0.53
		c0,1-0.24,1.76-0.72,2.28c-0.48,0.51-1.09,0.77-1.84,0.77c-0.76,0-1.36-0.26-1.81-0.77s-0.67-1.27-0.67-2.28v-23.28
		c0-1.08,0.22-1.9,0.65-2.45c0.44-0.55,1.04-0.83,1.83-0.83c0.82,0,1.45,0.26,1.89,0.79C227.04,116.42,227.26,117.17,227.26,118.15z
		 M227.51,133.99c0,2.12,0.48,3.75,1.46,4.89c0.97,1.14,2.24,1.71,3.82,1.71c1.34,0,2.5-0.58,3.47-1.75
		c0.97-1.17,1.46-2.83,1.46-5.01c0-1.41-0.2-2.62-0.61-3.63c-0.4-1.02-0.98-1.8-1.72-2.35s-1.61-0.83-2.6-0.83
		c-1.02,0-1.92,0.28-2.71,0.83c-0.79,0.55-1.42,1.35-1.88,2.4C227.74,131.3,227.51,132.54,227.51,133.99z"/>
	<path fill="#E6403D" d="M262.22,135.18h-10.43c0.01,1.21,0.26,2.28,0.73,3.2c0.48,0.92,1.11,1.62,1.89,2.09
		c0.79,0.47,1.66,0.7,2.61,0.7c0.64,0,1.22-0.08,1.75-0.22s1.04-0.38,1.53-0.7c0.49-0.32,0.95-0.66,1.37-1.03
		c0.42-0.36,0.96-0.86,1.62-1.48c0.27-0.23,0.66-0.35,1.17-0.35c0.55,0,0.99,0.15,1.33,0.45c0.34,0.3,0.51,0.72,0.51,1.27
		c0,0.48-0.19,1.04-0.57,1.69c-0.38,0.64-0.95,1.26-1.71,1.86s-1.72,1.08-2.87,1.47s-2.48,0.59-3.97,0.59
		c-3.42,0-6.09-0.98-7.99-2.93c-1.9-1.95-2.85-4.6-2.85-7.95c0-1.58,0.23-3.04,0.7-4.38s1.15-2.5,2.05-3.47s2-1.7,3.32-2.22
		c1.31-0.51,2.77-0.77,4.38-0.77c2.08,0,3.87,0.44,5.36,1.32c1.49,0.88,2.61,2.01,3.35,3.41s1.11,2.81,1.11,4.26
		c0,1.34-0.38,2.21-1.15,2.61C264.69,134.98,263.61,135.18,262.22,135.18z M251.79,132.15h9.67c-0.13-1.82-0.62-3.19-1.47-4.09
		c-0.85-0.91-1.98-1.36-3.37-1.36c-1.33,0-2.42,0.46-3.27,1.38C252.49,129,251.97,130.36,251.79,132.15z"/>
	<path fill="#E6403D" d="M271.4,123.5h0.59v-3.2c0-0.86,0.02-1.53,0.07-2.02c0.04-0.49,0.17-0.91,0.38-1.26
		c0.21-0.36,0.51-0.66,0.9-0.89s0.83-0.34,1.31-0.34c0.68,0,1.29,0.25,1.84,0.76c0.36,0.34,0.6,0.75,0.69,1.24s0.15,1.18,0.15,2.08
		v3.63h1.95c0.75,0,1.33,0.18,1.73,0.54c0.4,0.36,0.6,0.82,0.6,1.38c0,0.72-0.28,1.22-0.85,1.5s-1.38,0.43-2.43,0.43h-1v9.8
		c0,0.83,0.03,1.47,0.09,1.92s0.21,0.81,0.47,1.09s0.67,0.42,1.24,0.42c0.31,0,0.74-0.06,1.27-0.17c0.53-0.11,0.95-0.17,1.25-0.17
		c0.43,0,0.82,0.17,1.16,0.52c0.34,0.34,0.52,0.77,0.52,1.28c0,0.86-0.47,1.52-1.41,1.97s-2.29,0.68-4.04,0.68
		c-1.67,0-2.93-0.28-3.79-0.84s-1.42-1.33-1.69-2.32c-0.27-0.99-0.4-2.31-0.4-3.96v-10.23h-0.7c-0.77,0-1.35-0.18-1.76-0.55
		c-0.4-0.36-0.61-0.83-0.61-1.39s0.21-1.02,0.63-1.38C269.98,123.68,270.59,123.5,271.4,123.5z"/>
	<path fill="#E6403D" d="M300.15,135.18h-10.43c0.01,1.21,0.26,2.28,0.73,3.2c0.47,0.92,1.11,1.62,1.89,2.09
		c0.79,0.47,1.66,0.7,2.61,0.7c0.64,0,1.22-0.08,1.75-0.22s1.04-0.38,1.53-0.7c0.49-0.32,0.95-0.66,1.37-1.03
		c0.42-0.36,0.96-0.86,1.62-1.48c0.27-0.23,0.66-0.35,1.17-0.35c0.55,0,0.99,0.15,1.33,0.45c0.34,0.3,0.51,0.72,0.51,1.27
		c0,0.48-0.19,1.04-0.57,1.69c-0.38,0.64-0.95,1.26-1.71,1.86s-1.72,1.08-2.87,1.47s-2.48,0.59-3.97,0.59
		c-3.42,0-6.09-0.98-7.99-2.93c-1.9-1.95-2.85-4.6-2.85-7.95c0-1.58,0.23-3.04,0.7-4.38s1.15-2.5,2.05-3.47s2-1.7,3.32-2.22
		c1.31-0.51,2.77-0.77,4.38-0.77c2.08,0,3.87,0.44,5.36,1.32c1.49,0.88,2.61,2.01,3.35,3.41s1.11,2.81,1.11,4.26
		c0,1.34-0.38,2.21-1.15,2.61C302.62,134.98,301.54,135.18,300.15,135.18z M289.72,132.15h9.67c-0.13-1.82-0.62-3.19-1.47-4.09
		c-0.85-0.91-1.98-1.36-3.37-1.36c-1.33,0-2.42,0.46-3.27,1.38C290.42,129,289.9,130.36,289.72,132.15z"/>
	<path fill="#7E7C89" d="M307.51,138.03l3.48-0.55c0.2,1.39,0.74,2.46,1.63,3.2c0.89,0.74,2.14,1.11,3.74,1.11
		c1.61,0,2.81-0.33,3.59-0.99s1.17-1.43,1.17-2.31c0-0.79-0.34-1.42-1.04-1.88c-0.48-0.31-1.68-0.71-3.59-1.19
		c-2.58-0.65-4.37-1.21-5.36-1.69s-1.75-1.13-2.27-1.97c-0.51-0.84-0.77-1.77-0.77-2.78c0-0.92,0.21-1.78,0.63-2.57
		c0.42-0.79,1-1.44,1.73-1.96c0.55-0.4,1.29-0.75,2.24-1.03c0.94-0.28,1.96-0.42,3.04-0.42c1.63,0,3.06,0.23,4.29,0.7
		s2.14,1.1,2.72,1.9s0.99,1.87,1.21,3.21l-3.44,0.47c-0.16-1.07-0.61-1.9-1.36-2.5s-1.81-0.9-3.17-0.9c-1.62,0-2.77,0.27-3.46,0.8
		c-0.69,0.53-1.04,1.16-1.04,1.88c0,0.46,0.14,0.87,0.43,1.23c0.29,0.38,0.74,0.69,1.35,0.94c0.35,0.13,1.39,0.43,3.11,0.9
		c2.49,0.66,4.22,1.21,5.21,1.63s1.75,1.04,2.31,1.85s0.84,1.81,0.84,3.01c0,1.17-0.34,2.28-1.03,3.31s-1.67,1.84-2.96,2.4
		s-2.75,0.85-4.38,0.85c-2.7,0-4.75-0.56-6.16-1.68C308.8,141.89,307.9,140.23,307.51,138.03z"/>
	<path fill="#7E7C89" d="M334.68,144.22l-7.89-20.74h3.71l4.45,12.42c0.48,1.34,0.92,2.73,1.33,4.18c0.31-1.09,0.75-2.41,1.31-3.95
		l4.61-12.66h3.61l-7.85,20.74H334.68z"/>
	<path fill="#7E7C89" d="M348.94,119.63v-4.04h3.52v4.04H348.94z M348.94,144.22v-20.74h3.52v20.74H348.94z"/>
	<path fill="#7E7C89" d="M355.95,144.22v-2.85l13.2-15.16c-1.5,0.08-2.82,0.12-3.96,0.12h-8.46v-2.85h16.95v2.32l-11.23,13.16
		l-2.17,2.4c1.58-0.12,3.05-0.18,4.43-0.18h9.59v3.03H355.95z"/>
	<path fill="#7E7C89" d="M375.95,144.22v-2.85l13.2-15.16c-1.5,0.08-2.82,0.12-3.96,0.12h-8.46v-2.85h16.95v2.32l-11.23,13.16
		l-2.17,2.4c1.58-0.12,3.05-0.18,4.43-0.18h9.59v3.03H375.95z"/>
	<path fill="#7E7C89" d="M412,137.54l3.63,0.45c-0.57,2.12-1.63,3.77-3.18,4.94s-3.53,1.76-5.94,1.76c-3.03,0-5.44-0.93-7.22-2.8
		s-2.67-4.49-2.67-7.86c0-3.49,0.9-6.2,2.7-8.13s4.13-2.89,6.99-2.89c2.77,0,5.04,0.94,6.8,2.83s2.64,4.54,2.64,7.97
		c0,0.21-0.01,0.52-0.02,0.94h-15.47c0.13,2.28,0.77,4.02,1.93,5.23s2.6,1.82,4.34,1.82c1.29,0,2.39-0.34,3.3-1.02
		S411.47,139.03,412,137.54z M400.46,131.86h11.58c-0.16-1.75-0.6-3.05-1.33-3.93c-1.12-1.35-2.57-2.03-4.36-2.03
		c-1.61,0-2.97,0.54-4.07,1.62S400.58,130.05,400.46,131.86z"/>
	<path fill="#7E7C89" d="M420.01,144.22v-20.74h3.16v3.14c0.81-1.47,1.55-2.44,2.24-2.91s1.44-0.7,2.26-0.7
		c1.18,0,2.39,0.38,3.61,1.13l-1.21,3.26c-0.86-0.51-1.72-0.76-2.58-0.76c-0.77,0-1.46,0.23-2.07,0.69s-1.05,1.1-1.31,1.92
		c-0.39,1.25-0.59,2.62-0.59,4.1v10.86H420.01z"/>
	<path fill="#7E7C89" d="M446.91,141.67c-1.3,1.11-2.56,1.89-3.76,2.34s-2.5,0.68-3.88,0.68c-2.28,0-4.03-0.56-5.25-1.67
		s-1.84-2.54-1.84-4.27c0-1.02,0.23-1.94,0.69-2.78s1.07-1.51,1.82-2.02s1.59-0.89,2.53-1.15c0.69-0.18,1.73-0.36,3.13-0.53
		c2.84-0.34,4.93-0.74,6.27-1.21c0.01-0.48,0.02-0.79,0.02-0.92c0-1.43-0.33-2.44-1-3.03c-0.9-0.79-2.23-1.19-4-1.19
		c-1.65,0-2.87,0.29-3.66,0.87s-1.37,1.6-1.75,3.08l-3.44-0.47c0.31-1.47,0.83-2.66,1.54-3.56s1.75-1.6,3.11-2.09
		s2.92-0.73,4.71-0.73c1.77,0,3.21,0.21,4.32,0.63s1.92,0.94,2.44,1.57s0.89,1.43,1.09,2.39c0.12,0.6,0.18,1.68,0.18,3.24v4.69
		c0,3.27,0.08,5.33,0.22,6.2s0.45,1.7,0.89,2.49h-3.67C447.25,143.5,447.01,142.64,446.91,141.67z M446.61,133.81
		c-1.28,0.52-3.19,0.96-5.74,1.33c-1.45,0.21-2.47,0.44-3.07,0.7s-1.06,0.64-1.39,1.14s-0.49,1.06-0.49,1.67
		c0,0.94,0.35,1.72,1.06,2.34s1.75,0.94,3.12,0.94c1.35,0,2.56-0.3,3.61-0.89s1.83-1.4,2.32-2.43c0.38-0.79,0.57-1.97,0.57-3.52
		V133.81z"/>
</g>
</svg>
